# xmcd CD database file
# 
# Track frame offsets:
# 	150
# 	20337
# 	40752
# 	64095
# 	81692
# 	99069
# 	122994
# 	123549
# 	144554
# 	161433
# 	178121
# 	195749
# 	210966
# 
# Disc length: 3055 seconds
# 
# Submitted via: Nero 6, 3, 0, 2
# 
# Revision: 0
# Processed by: cddbd v1.5PL3 Copyright (c) Steve Scherf et al.
#
DISCID=b10bed0d
DTITLE=DaveHole - Steel pn Steel
DYEAR=1900
DGENRE=
TTITLE0=Wildfire
TTITLE1=Quicksand
TTITLE2=Counting My Regrets
TTITLE3=Killing Bite
TTITLE4=Take Me To Chicago
TTITLE5=I Won't Leave
TTITLE6=Worry
TTITLE7=I Found Love
TTITLE8=Giong Down
TTITLE9=One Last Breath
TTITLE10=Hook, Line and Sinker
TTITLE11=Cold Rain
TTITLE12=Blues Will Call Your Name
EXTD=
EXTT0=
EXTT1=
EXTT2=
EXTT3=
EXTT4=
EXTT5=
EXTT6=
EXTT7=
EXTT8=
EXTT9=
EXTT10=
EXTT11=
EXTT12=
PLAYORDER=
